<svg enable-background="new 0 0 1122 800" viewBox="0 0 1122 800" xmlns="http://www.w3.org/2000/svg" xmlns:xlink="http://www.w3.org/1999/xlink"><defs><path id="a" d="m438.172 284.033h254.763v387.169h-254.763z" transform="matrix(1 -.0014 .0014 1 -.6912 .8197)"/><clipPath id="b"><use xlink:href="#a"/></clipPath></defs><path d="m0 0h1122v800h-1122z" fill="#fff"/><path d="m964.515 595.012h-726.764c-22.988 0-41.796 12.032-41.796 26.737 0 10.183 9.022 19.08 22.201 23.591h-63.998c-22.988 0-41.796 12.032-41.796 26.737 0 14.705 18.808 26.737 41.796 26.737h22.3c-6.228 4.672-10.007 10.716-10.007 17.3v10.695c0 14.705 18.808 26.737 41.796 26.737h715.946c22.988 0 41.796-12.032 41.796-26.737v-10.695c0-14.705-18.808-26.737-41.796-26.737l-48.68.594c3.708 0 9.729-1.871 13.768-5.633 7.082-6.596 7.396-16.636 3.934-24.947-2.245-5.388-5.841-9.66-14.752-11.266l86.051.361c22.988 0 41.796-12.032 41.796-26.737.001-14.705-18.807-26.737-41.795-26.737z" fill="#606060" opacity=".1"/><path d="m557.422 139.576c0 20.559 36.206 69.4 37.225 69.4 1.369 0 37.225-48.842 37.225-69.4 0-20.559-16.666-37.225-37.225-37.225-20.558 0-37.225 16.666-37.225 37.225zm19.685-2.675c0-9.687 7.853-17.54 17.54-17.54s17.54 7.853 17.54 17.54-7.853 17.54-17.54 17.54c-9.687.001-17.54-7.852-17.54-17.54z" fill="#b22b48"/><path d="m698.259 711.767-264.142.383c-5.691.008-10.311-4.599-10.319-10.289l-.627-432.745c-.008-5.691 4.599-10.311 10.289-10.319l264.142-.383c5.691-.008 10.311 4.599 10.319 10.29l.627 432.745c.009 5.69-4.598 10.31-10.289 10.318z" fill="#334c60"/><path d="m438.172 282.658h254.763v387.169h-254.763z" fill="#fff" transform="matrix(1 -.0014 .0014 1 -.6892 .8196)"/><path d="m550.906 688.012h30.506v7.04h-30.506z" fill="#fff" transform="matrix(1 -.0014 .0014 1 -1.0014 .821)"/><use fill="#f4ebe1" xlink:href="#a"/><path clip-path="url(#b)" d="m436.419 319.111 146.318 23.892-38.622 91.747-118.738-19.601z" fill="#a6caa2"/><path clip-path="url(#b)" d="m452.417 602.813c12.044 5.198 24.985 7.923 37.468 11.958 22.678 7.331 43.712 18.938 64.256 31.022 12.12 7.129 24.128 14.449 36.017 21.957 5.782 3.651 11.672 7.406 18.318 9.017 12.984 3.147 26.334-2.332 38.569-7.696 2.389-3.847 1.041-9.12-1.941-12.528-2.981-3.408-7.239-5.373-11.373-7.22-33.029-14.753-66.681-28.11-100.834-40.032-33.817-11.804-70.474-26.445-105.948-31.606-8.067 12.717 17.15 21.539 25.468 25.128z" fill="#a3cedf"/><path clip-path="url(#b)" d="m420.41 305.671c.12 5.362.415 10.734.743 16.109l296.568 48.956 2.569-15.562z" fill="#fff"/><path clip-path="url(#b)" d="m418.134 407.164c-.173 2.637-.338 5.274-.495 7.911l294.941 48.687 1.284-7.781z" fill="#fff"/><path clip-path="url(#b)" d="m610.619 270.664-155.959 363.684 7.964 6.636 161.932-375.629z" fill="#fff"/><path clip-path="url(#b)" d="m495.7 631.798c9.376 3.484 19.445 7.52 24.638 16.069 6.064 9.983 3.511 22.845-.343 33.872-2.736 7.829-6.75 16.199-14.444 19.295-7.38 2.97-15.687.114-23.115-2.734-16.595-6.362-33.191-12.723-49.786-19.085-2.26-.866-4.575-1.766-6.378-3.38-3.079-2.758-4.132-7.081-4.854-11.151-2.387-13.451-9.484-50.2 9.088-54.343 8.768-1.956 20.508 4.854 28.323 7.759 12.29 4.567 24.581 9.132 36.871 13.698z" fill="#a6caa2"/><path clip-path="url(#b)" d="m482.533 423.969-44.641 124.103.407 17.257 52.198-141.36z" fill="#fff"/><path clip-path="url(#b)" d="m464.398 494.649 44.114 14.119 3.198-7.456-43.516-16.942z" fill="#fff"/><path clip-path="url(#b)" d="m638.493 341.671 23.227-57.822h13.937l-27.387 59.436z" fill="#fff"/><path clip-path="url(#b)" d="m480.141 315.531 10.356-31.682 8.627.28-11.07 34.982z" fill="#fff"/><path clip-path="url(#b)" d="m532.083 325.39 10.357-51.408 8.627.455-11.071 56.761z" fill="#fff"/><path clip-path="url(#b)" d="m521.476 504.465 171.739 73.222-.115 13.522-175.938-76.737z" fill="#fff"/><path clip-path="url(#b)" d="m570.162 537.588-19.095 53.621 142.112 55.084-.014-9.957-127.611-50.435 64.975-139.368-8.406-3.318z" fill="#fff"/><path clip-path="url(#b)" d="m565.554 397.422 135.986 31.102v-15.551l-135.986-29.15z" fill="#fff"/><path clip-path="url(#b)" d="m425.377 343.285 73.747 20.955-18.983 34.51-52.424-3.952z" fill="#f4ebe1"/><path clip-path="url(#b)" d="m458.149 518.615h367.192v26.648h-367.192z" fill="#f2d263" transform="matrix(.5 -.866 .866 .5 -139.7997 821.7373)"/><path d="m821.482 729.066v5.831l-11.663 5.832-5.832-5.832 5.832-5.831 11.663-5.832z" fill="#a16652"/><path d="m816.044 573.695 23.728 162.347h10.785l6.812-88.553 14.759-88.553z" fill="#2e4661"/><path d="m839.659 553.032v17.711l-23.615 76.746 5.904 79.698-11.567 2.313-26.806-96.77.903-28.659 10.904-58.45z" fill="#2e4661"/><path d="m850.639 734.897v5.832l-11.663 5.831-5.831-5.831 5.831-5.832z" fill="#a16652"/><path d="m828.864 467.244c3.538-.483 7.076-.966 10.614-1.449-.07-2.847-.369-5.688-.891-8.487 2.921-1.15 6.284-2.836 6.686-5.95.127-.981-.079-1.97-.283-2.938-.844-4-1.688-8-2.532-11.999-.292-1.383-.601-2.807-1.402-3.972-1.406-2.044-4.018-2.865-6.476-3.199-6.273-.853-13.016.748-17.699 5.009-1.246 1.134-2.361 2.483-2.87 4.089-.784 2.477-.031 5.149.721 7.636.694 2.295 1.388 4.591 2.082 6.886.798 2.64 1.92 5.633 4.526 6.538 1.383.48 2.988.266 4.251 1.006 2.228 1.305 2.054 4.553 3.273 6.83z" fill="#eacdb0"/><path d="m791.408 428.424c-.649-.983-1.345-1.928-2.116-2.811-1.671-1.912-3.703-3.528-5.07-5.668s-1.929-5.088-.46-7.159c.948-1.337 2.54-2.046 4.094-2.566 5.12-1.714 10.703-2.023 15.981-.885 5.027 1.084 9.562 3.02 14.507.962 4.646-1.933 8.075-1.342 13.063.234 5.398 1.705 12.567 1.89 17.488 4.396 2.055 1.047 3.727 2.739 5.051 4.627 4.587 6.543 4.951 15.784.894 22.668-.91 1.544-2.015 2.966-3.181 4.328-2.413 2.819-5.296 6.296-8.716 7.434-.196-3.09 2.262-12.948-.207-15.395-3.918-3.884-12.39-2.167-17.03-1.004-5.061 1.268-9.475 5.048-14.504 6.007-3.619.689-8.329-.924-11.493-2.691-3.904-2.183-5.931-8.89-8.301-12.477z" fill="#3a3029"/><path d="m773.947 440.231-1.568-6.108 2.906-4.74-.692-1.126-1.42.796 1.285-4.625-1.591-3.557-5.081-1.029-4.794 2.388-.488 5.154 2.566 5.596 1.783 8.453z" fill="#eacdb0"/><path d="m776.345 433.721 5.446 39.466 45.716-9.543-16.346 35.622-45.333-4.706-1.422-57.892z" fill="#e89f40"/><path d="m894.801 440.772 2.188-5.953-2.427-5.038.807-1.057 1.341.94-.818-4.759 1.953-3.397 5.189-.515 4.556 2.877-.035 5.206-3.135 5.34-2.643 8.278z" fill="#eacdb0"/><path d="m893.353 436.449-9.296 35.651-33.846-6.959 8.059 36.901 41.904-8.412 6.219-57.092z" fill="#e89f40"/><path d="m878.264 578.304c.158 7.214-.069 16.936-2.84 17.292-.519.067-1.017-.19-1.471-.438-4.793-2.617-8.183-6.299-12.907-8.827-4.951-2.65-10.615-4.058-16.17-5.043-8.306-1.518-16.796-2.459-25.262-2.607-7.306-.127-16.18-.422-23.242 1.524-5.417 2.031-10.776 4.128-16.125 6.381 3.034-27.345 8.032-54.471 14.939-81.102 2.644-10.194 3.077-20.237 10.543-27.69 6.612-6.6 4.863-15.365 23.2-14.512 32.08 1.492 22.601-1.279 35.855 25.943 3.008 6.178 6.707 23.045 7.796 29.768 1.319 8.142 2.539 16.3 3.489 24.489 1.06 9.138 1.787 18.318 1.941 27.512.017 1.021.179 3.883.254 7.31z" fill="#e89f40"/><path d="m513.479 348.717h410.715v83.881h-410.715z" opacity=".09"/><path d="m503.953 337.198h410.715v83.881h-410.715z" fill="#fffff3"/><path d="m331.683 743.133c.082-.534.31-1.151.669-1.876.958-1.933 1.942-4.068 3.246-5.795 1.177-1.558 3.532-1.18 5.289-.948 2.723.36 5.446.719 8.169 1.079.126.017.257.036.359.112.272.205.145.633-.006.938-1.442 2.912-2.883 5.823-4.325 8.735-.269.542-.555 1.106-1.042 1.464-.565.415-1.305.486-2.005.507-2.764.082-5.554-.397-8.127-1.413-1.758-.696-2.424-1.507-2.227-2.803z" fill="#272525"/><path d="m315.327 614.987 16.449 64.701.297 65.106 6.742 2.236 4.912-2.502 9.647-67.361 6.605-66.226z" fill="#cab5a1"/><path d="m267.474 740.175c.226-.491.616-1.021 1.162-1.618 1.455-1.592 2.991-3.372 4.722-4.672 1.562-1.172 3.72-.157 5.344.552 2.517 1.099 5.034 2.197 7.552 3.296.116.051.237.105.314.207.205.273-.035.648-.265.9-2.191 2.399-4.381 4.799-6.572 7.198-.408.447-.839.909-1.406 1.119-.657.242-1.389.106-2.068-.067-2.679-.685-5.228-1.917-7.419-3.606-1.496-1.154-1.912-2.118-1.364-3.309z" fill="#272525"/><path d="m287.867 610.167-4.505 64.979-15.3 64.397 5.861 4.013 5.412-1.046 27.899-62.066 24.662-61.817z" fill="#cab5a1"/><path d="m405.758 485.865c.061-.078.125-.164.123-.263-.003-.135-.125-.233-.236-.311-.973-.683-1.947-1.366-2.92-2.05-.139-.097-.287-.198-.456-.208-.193-.011-.371.098-.533.205-1.135.752-2.215 1.589-3.226 2.502-.942-.699-1.959-1.299-3.027-1.786-2.797 4.186-5.594 8.372-8.391 12.558 1.868.463 3.735.925 5.603 1.388.242.06.496.12.74.062.286-.069.507-.289.711-.5 3.817-3.928 8.121-7.026 11.612-11.597z" fill="#ebceb1"/><path d="m334.488 533.07 20.393 11.256 44.922-49.703-8.402-7.451-37.637 23.829-10.325-17.048-21.259 17.168z" fill="#aeccdc"/><path d="m331.569 468.99c3.639 3.411 5.748 12.474 7.555 16.589 11.196 25.432 20.799 51.526 30.02 77.727 4.622 13.133 9.145 26.3 13.726 39.447.842 2.418 10.133 31.48 10.779 31.403-43.622 5.231-77.207 12.407-120.789 7.93-5.042-.528-5.235-31.335-5.52-35.284-1.414-19.594-1.62-39.343.72-58.876 1.747-14.576 4.93-29.022 9.97-42.824 3.962-10.85 10.108-30.199 21.343-35.681 6.021-2.938 25.338-4.748 31.232-1.173.333.202.654.451.964.742z" fill="#aeccdc"/><path d="m351.331 448.473c-2.915 6.696-8.397 11.876-13.736 16.858-12.778 11.924-25.557 23.848-38.335 35.772-.551.515-1.119 1.04-1.815 1.33-1.197.499-2.56.225-3.826-.055-13.402-2.969-26.805-5.938-40.207-8.907 6.069-14.553 13.041-28.73 20.863-42.421 5.642-9.875 11.965-19.757 21.227-26.357 9.212-6.565 30.104-14.845 41.509-11.619 13.931 3.941 19.609 23.249 14.32 35.399z" fill="#f2d042"/><g fill="#334c60"><path d="m584.881 351.277h-5.825v50.573h31.182v-4.973h-25.357z"/><path d="m640.64 367.542c-2.557-1.515-5.517-2.273-8.879-2.273-3.363 0-6.322.758-8.879 2.273-2.556 1.516-4.534 3.671-5.93 6.464-1.397 2.795-2.096 6.063-2.096 9.803 0 3.741.699 7.008 2.096 9.802 1.396 2.794 3.374 4.949 5.93 6.464 2.557 1.516 5.516 2.274 8.879 2.274 3.362 0 6.322-.757 8.879-2.274 2.557-1.514 4.533-3.669 5.931-6.464 1.396-2.794 2.095-6.061 2.095-9.802 0-3.74-.7-7.007-2.095-9.803-1.398-2.793-3.374-4.947-5.931-6.464zm-.71 26.53c-1.895 2.344-4.617 3.516-8.169 3.516-3.551 0-6.286-1.172-8.204-3.516-1.917-2.344-2.877-5.765-2.877-10.264 0-4.356.97-7.73 2.913-10.122 1.941-2.39 4.664-3.587 8.168-3.587 3.456 0 6.156 1.197 8.097 3.587 1.942 2.392 2.913 5.766 2.913 10.122-.001 4.499-.949 7.92-2.841 10.264z"/><path d="m673.171 370.099c1.751 0 3.468.332 5.149.995 1.68.664 3.421 1.704 5.22 3.125l1.918-4.262c-1.468-1.467-3.328-2.616-5.576-3.445-2.25-.828-4.581-1.243-6.997-1.243-3.505 0-6.57.781-9.199 2.344-2.628 1.563-4.652 3.754-6.073 6.57-1.42 2.818-2.131 6.073-2.131 9.767s.699 6.926 2.096 9.696c1.396 2.77 3.384 4.913 5.966 6.428 2.58 1.516 5.599 2.274 9.057 2.274 2.461 0 4.84-.415 7.138-1.243 2.296-.828 4.202-1.953 5.719-3.374l-1.918-4.262c-1.8 1.421-3.54 2.463-5.22 3.126-1.682.664-3.399.994-5.149.994-3.694 0-6.57-1.196-8.63-3.588-2.06-2.39-3.09-5.74-3.09-10.05 0-4.356 1.041-7.753 3.125-10.193 2.083-2.439 4.948-3.659 8.595-3.659z"/><path d="m718.558 372.301c-1.09-2.225-2.676-3.953-4.759-5.185-2.085-1.23-4.523-1.846-7.316-1.846-3.125 0-5.884.781-8.275 2.344-2.392 1.563-4.25 3.754-5.576 6.57-1.326 2.818-1.989 6.073-1.989 9.767s.651 6.926 1.954 9.696c1.302 2.77 3.148 4.913 5.54 6.428 2.391 1.516 5.173 2.274 8.346 2.274 2.794 0 5.244-.604 7.351-1.811s3.681-2.923 4.724-5.15v6.464h5.683v-35.728h-5.683zm-2.841 21.7c-1.895 2.392-4.594 3.588-8.098 3.588-3.551 0-6.298-1.184-8.239-3.552-1.943-2.367-2.913-5.729-2.913-10.086 0-4.356.982-7.753 2.948-10.193 1.965-2.438 4.7-3.658 8.204-3.658s6.203 1.185 8.098 3.552c1.893 2.368 2.841 5.754 2.841 10.157s-.948 7.802-2.841 10.192z"/><path d="m743.063 354.9-5.754 2.059v9.164h-6.961v4.545h6.961v20.314c0 3.742.959 6.57 2.877 8.488 1.918 1.917 4.581 2.877 7.99 2.877 1.847 0 3.505-.238 4.973-.711v-4.901c-1.232.426-2.511.639-3.835.639-1.989 0-3.528-.532-4.617-1.598-1.09-1.065-1.634-2.923-1.634-5.576v-19.534h10.228v-4.545h-10.228z"/><path d="m759.683 350.992h7.033v6.535h-7.033z"/><path d="m760.251 366.122h5.754v35.728h-5.754z"/><path d="m800.809 367.542c-2.557-1.515-5.517-2.273-8.879-2.273-3.363 0-6.322.758-8.879 2.273-2.556 1.516-4.534 3.671-5.93 6.464-1.397 2.795-2.096 6.063-2.096 9.803 0 3.741.699 7.008 2.096 9.802 1.396 2.794 3.374 4.949 5.93 6.464 2.557 1.516 5.516 2.274 8.879 2.274 3.362 0 6.322-.757 8.879-2.274 2.557-1.514 4.533-3.669 5.931-6.464 1.395-2.794 2.095-6.061 2.095-9.802 0-3.74-.699-7.007-2.095-9.803-1.398-2.793-3.374-4.947-5.931-6.464zm-.71 26.53c-1.895 2.344-4.617 3.516-8.169 3.516-3.551 0-6.286-1.172-8.204-3.516-1.917-2.344-2.877-5.765-2.877-10.264 0-4.356.97-7.73 2.913-10.122 1.941-2.39 4.664-3.587 8.168-3.587 3.456 0 6.156 1.197 8.097 3.587 1.942 2.392 2.913 5.766 2.913 10.122 0 4.499-.948 7.92-2.841 10.264z"/><path d="m835.613 365.27c-2.794 0-5.281.629-7.458 1.882-2.179 1.255-3.813 3.043-4.901 5.363l-.568-6.393h-5.47c.379 2.983.568 6.321.568 10.014v25.713h5.754v-20.457c0-3.456.995-6.203 2.984-8.239 1.989-2.035 4.64-3.055 7.955-3.055 2.841 0 4.924.77 6.251 2.309 1.325 1.539 1.988 3.967 1.988 7.28v22.162h5.754v-22.445c-.001-9.422-4.287-14.134-12.857-14.134z"/></g><path d="m577.773 205.515 5.707 1.245 4.291-2.851 1.065.603-.688 1.342 4.238-1.347 3.347 1.352 1.125 4.67-2.049 4.519-4.755.626-5.268-2.186-7.886-1.365z" fill="#eacdb0"/><path d="m583.719 203.074-49.41-28.964-33.038-43.729-9.254 15.988 25.417 56.841 63.961 11.017z" fill="#a6caa2"/><path d="m485.056 129.941c-3.623-.301-7.246-.602-10.869-.903-.081-2.898.069-5.803.45-8.677-3.032-1.012-6.541-2.547-7.117-5.691-.181-.99-.026-2.008.13-3.002.644-4.112 1.287-8.224 1.93-12.336.223-1.422.46-2.886 1.212-4.114 1.32-2.154 3.931-3.128 6.413-3.6 6.333-1.203 13.274.062 18.264 4.143 1.328 1.086 2.534 2.398 3.137 4.004.93 2.476.308 5.233-.323 7.802-.583 2.371-1.165 4.742-1.747 7.113-.67 2.727-1.65 5.831-4.251 6.89-1.381.563-3.023.431-4.268 1.251-2.196 1.446-1.845 4.74-2.961 7.12z" fill="#eacdb0"/><path d="m513.111 92.361c1.086-2.456 1.073-5.173-.941-8.04-2.877-4.095-7.514-6.575-12.156-8.443-2.445-.983-4.945-1.841-7.513-2.432-10.3-2.369-21.39-.954-30.621 4.378-2.033 1.174-3.642 2.984-4.886 4.975-4.312 6.898-4.187 16.313.307 23.095 1.008 1.521 2.208 2.908 3.466 4.229 2.605 2.736 5.722 6.117 9.261 7.09-.41-.113-1.294-8.66-1.37-9.467-.301-3.209-.251-7.443 3.477-8.659 5.385-1.757 10.948-1.567 16.529-1.693 1.728-.039 3.459-.366 5.082.258 2.357.906 3.594 3.431 6.293 3.918 2.291.413 4.584-.696 6.48-2.047 2.732-1.943 5.364-4.385 6.592-7.162z" fill="#3a3029"/><path d="m541.234 258.33-20.122 85.228h-11.528l-5.496-73.814-30.156-20.915 39.703-29.46 19.404 21.747z" fill="#666"/><path d="m509.566 343.306.08.176 4.721 10.335 7.297.704 4.415-3.585-5.335-7.63z" fill="#39281c"/><path d="m440.962 236.68c-3.287 1.274-4.076 3.669-3.952 8.61.2 7.939 2.775 15.795 7.276 22.197.34.484.712.978 1.235 1.228.455.218.973.226 1.473.231 6.252.056 16.136.259 18.887 7.206 2.605 6.578 1.677 16.268 2.522 23.316 1.854 15.451 3.708 30.903 5.561 46.354 0 0 12.457-.612 12.457-.612l12.635-90.309.837-23.439-13.493-6.027c-8.532 3.057-18.285 8.431-27.193 9.743-5.1.751-10.301-.147-15.382.75-1.116.199-2.063.442-2.863.752z" fill="#666"/><path d="m473.932 345.551.095.185 5.605 10.918 7.919.373 4.596-4.107-6.136-7.963z" fill="#39281c"/><path d="m523.059 229.318c-6.485.527-13.376-3.566-20.123-4.878-5.444-1.059-11.029-.257-16.508.547-3.985.584-7.795 1.401-11.682 2.497-3.643 1.027-6.016 3.23-9.046 5.715 8.257 4.449 18.141 1.038 27.272 2.277 3.54.48 6.963 1.666 10.439 2.545 8.835 2.234 17.119 2.161 25.626-1.165-2.249-2.298-4.442-4.753-5.978-7.538z" fill="#272525" opacity=".29"/><path d="m435.651 237.809c-.154 7.345.067 17.244 2.764 17.606.505.068.99-.193 1.432-.446 4.664-2.664 7.963-6.414 12.56-8.987 4.818-2.698 10.33-4.131 15.736-5.135 8.083-1.545 16.345-2.504 24.58-2.654 8.942-.163 26.35 1.677 26.35 1.677 5.026-.884 9.828-2.695 14.643-4.375 8.272-2.886 16.719-5.429 24.481-9.472 2.491-1.297 9.361-5.131 6.906-8.601-1.859-2.627-8.174-4.386-11.02-6-6.357-3.605-12.468-7.72-17.849-12.663-7.647-7.024-13.291-15.641-16.823-25.346-1.783-4.899-3.069-9.962-4.13-15.057-.575-2.76-1.08-5.534-1.553-8.313-.269-1.578-.266-7.548-1.368-8.538-11.179-10.049-14.468-18.854-28.003-16.661-30.885 5.003-28.696 6.436-35.587 22.271-2.771 6.367-6.527 23.463-7.586 30.308-1.283 8.29-2.471 16.596-3.395 24.933-1.031 9.304-1.739 18.65-1.889 28.011-.018 1.038-.176 3.952-.249 7.442z" fill="#a6caa2"/><path d="m440.15 204.449.508 5.606 3.862 3.119-.246 1.154-1.433-.244 2.465 3.506-.275 3.468-3.967 2.385-4.747-.575-1.951-4.19.484-5.475-1.027-7.644z" fill="#eacdb0"/><path d="m444.893 209.041s-5.971-33.305-5.971-33.305c-.16-.892 8.931-6.462 9.83-7.113 4.32-3.126 9.081-6.163 12.7-10.063 3.365-3.625 6.661-7.596 7.852-12.396.733-2.957.542-6.107-.42-8.989-1.14-3.417-3.408-7.967-6.959-6.577-1.82.712-3.751 2.837-5.307 4.014-5.259 3.977-10.518 7.954-15.777 11.931-7.584 5.735-15.168 11.471-22.752 17.206l14.215 49.507z" fill="#a6caa2"/><path d="m504.033 76.845-50.443 22.103s-8.049-14.307 2.293-26.404c10.342-12.098 26.051-14.657 33.076-12.331 7.025 2.325 15.074 16.632 15.074 16.632z" fill="#446072"/><path d="m517.032 78.693c.144.937-.159 1.952-.63 2.89-1.547 3.079-4.761 5.399-7.995 7.266-9.37 5.407-20.03 8.329-30.511 9.715-2.871.38-15.183-2.109-17.755-2.871s4.682-.045 4.902-2.583c.293-3.372 4.171-5.964 7.619-7.869 7.78-4.298 17.563-10.844 26.273-12.807 5.601-1.262 17.271.887 18.097 6.259z" fill="#446072"/><path d="m384.977 502.358-15.084-15.655 54.821-52.819 16.735 14.066z" fill="#8e999e"/><path d="m353.587 517.682-.174-.181c-4.758-4.939-5.613-11.835-1.909-15.403l42.061-41.145 18.288 18.176-42.944 41.033c-3.704 3.569-10.564 2.459-15.322-2.48z" fill="#2e4661"/><path d="m521.376 448.366c26.026-25.076 26.796-66.501 1.721-92.527s-66.501-26.797-92.527-1.721-26.797 66.501-1.721 92.527c25.075 26.026 66.501 26.796 92.527 1.721zm-85.943-8.066c-21.572-22.389-20.909-58.026 1.48-79.598s58.026-20.909 79.598 1.481c21.571 22.389 20.909 58.026-1.481 79.598-22.388 21.571-58.025 20.909-79.597-1.481z" fill="#59595b"/><ellipse cx="475.972" cy="401.242" fill="#95bcce" opacity=".77" rx="56.294" ry="56.294" transform="matrix(.7071 -.7071 .7071 .7071 -144.3117 454.0843)"/><path d="m488.047 362.446c17.477 4.101 30.391 19.368 31.008 37.376.615 17.963-11.36 34.367-28.609 39.408-4.862 1.421-3.016 9.067 1.853 7.644 19.857-5.802 33.868-23.67 34.616-44.333.737-20.363-12.297-38.795-31.132-45.993-1.822-.696-3.703-1.227-5.6-1.672-4.917-1.153-7.089 6.408-2.136 7.57z" fill="#fff" opacity=".22"/><path d="m480.125 448.756c-2.06 1.985-5.339 1.924-7.324-.136s-1.924-5.339.136-7.324 5.339-1.924 7.324.136 1.924 5.339-.136 7.324z" fill="#fff" opacity=".31"/><path d="m394.115 461.777 17.4 17.294c.598.594 1.548.639 2.199.104l.211-.173c.756-.621.805-1.762.104-2.445l-17.589-17.144c-.658-.642-1.715-.618-2.344.053l-.022.024c-.607.648-.589 1.661.041 2.287z" fill="#a16652"/><path d="m462.214 454.406c-13.112-3.341-24.636-11.3-32.329-22.443-7.594-11-10.893-24.488-9.494-37.755 1.43-13.563 8.146-26.25 18.232-35.353 9.823-8.865 22.802-13.875 35.999-14.188 13.684-.325 27.272 4.642 37.616 13.574 9.964 8.605 16.665 20.783 18.642 33.796 2.064 13.585-1.129 27.616-8.636 39.092-7.228 11.051-18.521 19.143-31.161 22.817-9.388 2.73-19.396 2.801-28.869.46-1.875-.463-2.604 2.441-.729 2.905 13.16 3.252 26.962 1.881 39.251-3.812 11.998-5.558 21.872-15.359 27.714-27.195 6.059-12.276 7.552-26.49 4.378-39.781-3.051-12.775-10.616-24.36-20.947-32.436-10.798-8.441-24.449-12.814-38.135-12.392-13.224.408-25.99 5.537-36.078 14.032-10.371 8.733-17.32 21.153-19.703 34.464-2.363 13.198.028 26.911 6.467 38.641 7.778 14.169 21.433 24.499 37.052 28.479 1.873.477 2.601-2.428.73-2.905z" fill="#6a8478"/><path d="m383.761 469.23c.041-.09.082-.189.057-.285-.035-.131-.177-.197-.303-.246-1.108-.432-2.216-.864-3.324-1.296-.158-.061-.326-.124-.492-.094-.191.035-.337.184-.468.326-.924 1.001-1.773 2.071-2.538 3.197-1.082-.455-2.212-.796-3.365-1.015-1.72 4.732-3.441 9.463-5.161 14.194l5.772.015c.25.001.511-.001.733-.116.261-.135.423-.401.572-.655 2.772-4.722 6.214-8.755 8.517-14.025z" fill="#ebceb1"/><path d="m325.774 532.039 22.485 6.081 31.803-58.967-9.934-5.237-30.884 32.102-14.086-14.102-16.563 21.735z" fill="#aeccdc"/></svg>